<svg width="42" height="42" viewBox="0 0 42 42" fill="none" xmlns="http://www.w3.org/2000/svg">
<path fill-rule="evenodd" clip-rule="evenodd" d="M41.138 0.769344C41.3819 1.0126 41.5753 1.30158 41.7074 1.61972C41.8394 1.93787 41.9073 2.27894 41.9073 2.62339C41.9073 2.96784 41.8394 3.30891 41.7074 3.62706C41.5753 3.9452 41.3819 4.23418 41.138 4.47744L4.47606 41.1394C3.98434 41.6311 3.31742 41.9073 2.62202 41.9073C1.92661 41.9073 1.25969 41.6311 0.76797 41.1394C0.276247 40.6476 5.18115e-09 39.9807 0 39.2853C-5.18115e-09 38.5899 0.276247 37.923 0.76797 37.4313L37.4299 0.769344C37.6731 0.525473 37.9621 0.331987 38.2803 0.19997C38.5984 0.0679535 38.9395 0 39.2839 0C39.6284 0 39.9695 0.0679535 40.2876 0.19997C40.6058 0.331987 40.8947 0.525473 41.138 0.769344Z" fill="white"/>
<path fill-rule="evenodd" clip-rule="evenodd" d="M0.769344 0.769344C0.525473 1.0126 0.331987 1.30158 0.19997 1.61972C0.0679535 1.93787 0 2.27894 0 2.62339C0 2.96784 0.0679535 3.30891 0.19997 3.62706C0.331987 3.9452 0.525473 4.23418 0.769344 4.47744L37.4313 41.1394C37.923 41.6311 38.5899 41.9073 39.2853 41.9073C39.9807 41.9073 40.6476 41.6311 41.1394 41.1394C41.6311 40.6476 41.9073 39.9807 41.9073 39.2853C41.9073 38.5899 41.6311 37.923 41.1394 37.4313L4.47744 0.769344C4.23418 0.525473 3.9452 0.331987 3.62706 0.19997C3.30891 0.0679535 2.96784 0 2.62339 0C2.27894 0 1.93787 0.0679535 1.61972 0.19997C1.30158 0.331987 1.0126 0.525473 0.769344 0.769344Z" fill="white"/>
</svg>
