<svg width="143" height="173" viewBox="0 0 143 173" fill="none" xmlns="http://www.w3.org/2000/svg">
<path fill-rule="evenodd" clip-rule="evenodd" d="M131.482 64.6354C138.237 75.4928 142.091 88.3037 142.091 102.023C142.091 141.182 110.4 172.937 71.3182 172.937C32.2367 172.937 0.545441 141.182 0.545441 102.023C0.545441 72.222 18.862 46.7366 44.8407 36.2427C24.3026 47.1001 10.2931 68.9966 10.2931 94.1639C10.2931 130.189 38.9468 159.399 74.3105 159.399C109.674 159.399 138.328 130.189 138.328 94.1639C138.328 83.5337 135.834 73.494 131.391 64.6354H131.482Z" fill="#FEFEFE"/>
<path fill-rule="evenodd" clip-rule="evenodd" d="M43.5259 32.1087C43.5259 32.1087 42.3924 1.94423 72.4969 0.354235C98.4303 -1.00862 104.324 15.0276 125.406 25.0219C113.12 29.9281 103.871 37.969 96.0727 45.601C79.7963 60.0472 63.4746 62.0006 47.1983 42.2392C65.4242 29.1104 83.514 23.2047 101.468 23.659C85.0555 20.6153 66.6483 21.6147 43.4805 32.1087H43.5259Z" fill="#FEFEFE"/>
<path fill-rule="evenodd" clip-rule="evenodd" d="M27.1135 79.2639H33.1435V96.7539H38.1306V71.3594H34.0502C33.9595 73.2674 32.6901 75.7659 27.8842 75.7659H27.1588V79.2639H27.1135ZM45.6568 84.3973C45.6568 93.3013 48.4677 97.4807 54.407 97.4807C60.3916 97.4807 63.1573 93.3013 63.1573 84.3973C63.1573 75.4934 60.437 71.3594 54.4523 71.3594C48.4677 71.3594 45.6114 75.4479 45.6114 84.3973H45.6568ZM50.78 84.3973C50.78 77.8556 51.5507 75.3571 54.407 75.3571C57.2633 75.3571 58.0341 77.8556 58.0341 84.3973C58.0341 90.939 57.2633 93.4376 54.407 93.4376C51.5507 93.4376 50.78 90.939 50.78 84.3973ZM65.5148 84.3973C65.5148 93.3013 68.3258 97.4807 74.2651 97.4807C80.2497 97.4807 83.0153 93.3013 83.0153 84.3973C83.0153 75.4934 80.295 71.3594 74.3104 71.3594C68.3258 71.3594 65.4695 75.4479 65.4695 84.3973H65.5148ZM70.638 84.3973C70.638 77.8556 71.4088 75.3571 74.2651 75.3571C77.1214 75.3571 77.8921 77.8556 77.8921 84.3973C77.8921 90.939 77.1214 93.4376 74.2651 93.4376C71.4088 93.4376 70.638 90.939 70.638 84.3973ZM101.921 90.7119C101.921 94.3462 104.868 97.2081 108.405 97.2081C111.941 97.2081 114.888 94.3007 114.888 90.7119C114.888 87.123 111.941 84.2156 108.405 84.2156C104.823 84.2156 101.921 87.123 101.921 90.7119ZM105.594 90.7119C105.594 89.1673 106.863 87.8953 108.405 87.8953C109.901 87.8953 111.216 89.1673 111.216 90.7119C111.216 92.3019 109.946 93.5284 108.405 93.5284C106.863 93.5284 105.594 92.3019 105.594 90.7119ZM85.1916 77.9011C85.1916 81.5353 88.1385 84.3973 91.6749 84.3973C95.2113 84.3973 98.1582 81.4899 98.1582 77.9011C98.1582 74.3122 95.2113 71.4048 91.6749 71.4048C88.0932 71.4048 85.1916 74.3122 85.1916 77.9011ZM88.8639 77.9011C88.8639 76.3565 90.1334 75.0845 91.6749 75.0845C93.2164 75.0845 94.4858 76.3565 94.4858 77.9011C94.4858 79.4911 93.2164 80.7176 91.6749 80.7176C90.1334 80.7176 88.8639 79.4911 88.8639 77.9011ZM108.359 71.4048H105.73L91.5389 97.4807H94.1685L108.359 71.4048Z" fill="#FEFEFE"/>
<path fill-rule="evenodd" clip-rule="evenodd" d="M43.5714 109.293V128.963H38.7656L35.5465 118.106C35.5012 117.879 35.4105 117.515 35.2745 117.016C35.1838 116.698 35.0025 115.834 34.7305 114.472C34.9118 116.334 35.0025 117.47 35.0025 117.879V128.963H31.3301V109.293H36.1359L39.1736 119.014C39.2189 119.196 39.627 120.786 40.3524 123.875C40.035 121.967 39.899 120.604 39.899 119.787V109.293H43.5714ZM54.1805 109.293L57.2635 128.963H53.1831L52.8204 125.556H49.9187L49.6013 128.963H45.6116L48.8306 109.293H54.2258H54.1805ZM52.367 122.149L51.3695 113.563L50.3268 122.149H52.3216H52.367ZM57.4448 109.293H67.4646V112.7H64.4722V128.963H60.4371V112.7H57.4448V109.293ZM79.5698 109.293V124.148C79.5698 125.647 79.3431 126.783 78.8444 127.51C78.0737 128.691 76.5775 129.281 74.3106 129.281C72.9505 129.281 71.817 129.054 70.9556 128.554C70.2302 128.146 69.7768 127.6 69.5048 126.964C69.2327 126.283 69.0967 125.329 69.0967 124.148V109.293H73.1318V124.148C73.1318 125.284 73.5399 125.874 74.3106 125.874C75.1267 125.874 75.5347 125.284 75.5347 124.148V109.293H79.5698ZM86.3252 120.514V128.963H82.2901V109.293H88.048C89.3628 109.293 90.3603 109.52 91.0403 110.02C91.9018 110.61 92.4005 111.519 92.6272 112.745C92.7178 113.29 92.7632 113.836 92.7632 114.472C92.7632 115.471 92.5818 116.289 92.2645 116.925C92.0378 117.424 91.7204 117.788 91.3124 118.06C91.0403 118.242 90.6323 118.469 90.1336 118.696C91.0403 118.924 91.6751 119.287 92.0378 119.787C92.4005 120.286 92.5818 121.104 92.5818 122.194V127.146C92.5818 127.737 92.5818 128.146 92.6272 128.282C92.6725 128.464 92.7632 128.691 92.8992 128.963H88.8641C88.6828 128.418 88.5921 127.828 88.5921 127.146V122.422C88.5921 121.74 88.4561 121.195 88.2294 120.877C88.0027 120.604 87.64 120.468 87.0506 120.468H86.3705L86.3252 120.514ZM86.3252 112.7V117.106L86.8239 117.061C87.5493 117.061 88.048 116.925 88.2747 116.652C88.5468 116.38 88.7281 115.789 88.7281 114.88C88.7281 113.881 88.5468 113.2 88.2294 112.927C88.0027 112.745 87.64 112.654 87.1413 112.654H87.0506H86.3252V112.7ZM102.556 109.293L105.639 128.963H101.559L101.196 125.556H98.2944L97.9771 128.963H93.9873L97.2063 109.293H102.602H102.556ZM100.743 122.149L99.7452 113.563L98.7025 122.149H100.697H100.743ZM111.261 109.293V125.556H115.478V128.963H107.226V109.293H111.261Z" fill="#FEFEFE"/>
</svg>
