<svg width="100" height="126" viewBox="0 0 100 126" fill="none" xmlns="http://www.w3.org/2000/svg">
<path fill-rule="evenodd" clip-rule="evenodd" d="M96.574 17.349L50.374 0.889885C49.9232 0.794192 49.4403 0.794192 48.9896 0.889885L2.78957 17.349C1.2764 17.668 0.181763 19.0077 0.181763 20.5388V72.8508C0.181763 101.24 42.2286 122.707 48.571 124.971C49.2793 125.227 50.0842 125.227 50.7925 124.971C57.1349 122.707 99.1818 101.24 99.1818 72.8508V20.5388C99.1818 19.0077 98.0871 17.668 96.574 17.349ZM62.8657 46.1206L44.9974 66.7903L36.1115 57.9865C35.3066 57.1891 33.9544 57.1891 33.1496 57.9865L24.2637 66.7903C23.4588 67.5877 23.4588 68.9274 24.2637 69.7249L39.5242 84.8443C42.9369 88.2254 48.6676 88.0022 51.8227 84.3658L75.5827 56.902C76.3232 56.0408 76.2266 54.733 75.3574 53.9674L65.8276 45.8655C64.9583 45.1318 63.6383 45.2275 62.8657 46.0887V46.1206ZM85.3379 25.7381L50.4383 11.6713C49.9554 11.5756 49.4725 11.5756 48.9896 11.6713L14.0901 25.7381C12.4803 26.089 11.3213 27.4925 11.3213 29.1192V73.2655C11.3213 81.5588 17.5027 90.9686 29.2218 100.506C36.6588 106.567 44.2247 110.873 48.0559 112.914C49.0862 113.456 50.3418 113.456 51.3398 112.914C55.171 110.873 62.7369 106.567 70.174 100.506C81.893 90.9686 88.0744 81.5588 88.0744 73.2655V29.1192C88.0744 27.4925 86.9154 26.089 85.3057 25.7381H85.3379Z" fill="#FEFEFE"/>
</svg>
