<svg width="116" height="136" viewBox="0 0 116 136" fill="none" xmlns="http://www.w3.org/2000/svg">
<path fill-rule="evenodd" clip-rule="evenodd" d="M81.5358 133.039C74.4718 134.916 66.4445 135.832 57.6833 135.877C6.21688 135.832 1.21703 102.959 1.17116 102.639C-3.96631 59.6945 29.4272 42.8922 36.4454 39.8247L42.6379 16.0633H37.4086C33.6473 16.0633 30.6199 13.179 30.6199 9.56216V7.36458C30.574 3.88507 33.739 0.90918 37.3628 0.90918H79.0588C80.8478 0.90918 82.4991 1.55014 83.7834 2.78628C85.0678 3.97664 85.8017 5.67061 85.8017 7.41036L85.7559 9.60795C85.8017 13.0875 82.6826 16.1091 79.0129 16.1091H73.4626L79.7927 39.8705C86.9026 42.8922 121.122 59.7403 115.296 102.731C115.159 103.692 111.168 125.164 81.5358 133.085V133.039ZM76.857 123.653C71.1691 125.164 64.7473 125.897 57.6833 125.942C16.7212 125.897 12.7305 99.9836 12.6846 99.6631C11.6296 90.9643 12.5928 83.639 14.657 77.5041C38.1884 52.415 47.0873 72.6969 61.9033 74.9403C76.169 77.1378 85.8017 75.1692 95.7556 65.7379C102.315 73.6583 105.847 83.2728 103.599 99.7089C103.508 100.487 100.297 117.381 76.8112 123.608L76.857 123.653ZM14.657 77.4583C14.657 77.5041 14.8405 78.786 14.657 77.4583V77.4583ZM92.0401 99.4342L91.1227 99.3426L90.5723 97.6486C95.251 88.7667 88.8292 77.0463 88.7374 76.9089L89.1961 75.215L90.8933 75.6728C91.2144 76.2222 98.0491 88.7209 92.8199 98.7932L92.0401 99.4342ZM36.7665 5.94531L35.528 7.36458V9.56216L37.3169 11.0272L45.7112 11.073L48.1881 13.5453L48.0964 14.3236L40.803 42.297L39.2435 44.0367C37.6839 44.6319 0.758328 58.4126 5.98753 102.044C6.17102 103.143 10.6663 130.887 57.5457 130.887C65.8941 130.887 73.4626 130.017 80.1138 128.232C106.673 121.135 110.205 102.135 110.251 101.952C116.168 58.321 77.1323 44.1741 76.7653 44.0367L75.1598 42.3428L67.683 14.3694L67.5913 13.7284L70.1141 11.1188H78.8753L80.6643 9.65373V7.45615L80.2056 6.44892L78.8753 5.94531L37.1793 5.89952L36.6747 5.99109L36.7665 5.94531Z" fill="#FEFEFE"/>
</svg>
