<svg width="108" height="159" viewBox="0 0 108 159" fill="none" xmlns="http://www.w3.org/2000/svg">
<path fill-rule="evenodd" clip-rule="evenodd" d="M84.4964 96.0058L67.3981 91.7169V86.1803L67.9797 85.9464C88.7612 78.3434 100.354 58.3415 96.2829 36.4292C92.2894 14.9848 75.23 1.06536 53.673 0.636475C32.0773 1.06536 15.0179 14.9458 11.0244 36.4292C6.95343 58.3415 18.5461 78.3434 39.3664 85.9464L39.9479 86.1803V91.7169L22.8497 96.0058C9.4348 99.3589 0.0908813 111.446 0.0908813 125.326V154.803C0.0908813 156.869 1.75805 158.585 3.85171 158.585H103.533C105.588 158.585 107.294 156.908 107.294 154.803V125.326C107.294 111.407 97.9113 99.3589 84.5351 96.0058H84.4964ZM78.1378 102.166L71.5855 115.306L59.101 112.148L65.6534 99.008L78.1378 102.166ZM26.3004 22.2759C29.9061 25.2391 34.5199 20.5603 31.5733 16.9732L30.9917 16.2324L31.7284 15.6476C36.7299 11.7876 42.6619 9.29223 48.9042 8.47345L49.9122 8.31749V14.3999C49.9122 16.4664 51.5794 18.1819 53.673 18.1819C55.7279 18.1819 57.4339 16.5054 57.4339 14.3999V8.31749L58.4419 8.47345C64.6841 9.29223 70.6162 11.7876 75.6177 15.6476L76.3931 16.2714L75.6952 17.0122C72.2833 20.7163 77.3236 25.785 81.0069 22.3539L81.7436 21.652L82.3639 22.4318C86.2023 27.4615 88.6449 33.388 89.4979 39.7044L89.653 40.7181H83.6046C81.5497 40.7181 79.8438 42.3947 79.8438 44.5001C79.8438 46.5666 81.511 48.2821 83.6046 48.2821H89.653L89.4979 49.2959C88.6837 55.5732 86.2023 61.5387 82.3639 66.5684L81.7823 67.3092L81.0457 66.7244C77.4399 63.7611 72.8261 68.4399 75.7728 72.027L76.3543 72.7678L75.6177 73.3526C70.6162 77.2126 64.6841 79.708 58.4419 80.5268L57.4339 80.6827V74.6003C57.4339 72.5339 55.7667 70.8183 53.673 70.8183C51.6182 70.8183 49.9122 72.4949 49.9122 74.6003V80.6827L48.9042 80.5268C42.6619 79.708 36.7299 77.2126 31.7284 73.3526L30.953 72.7678L31.5733 72.027C32.8528 70.5454 32.7752 68.284 31.3794 66.9193C29.9837 65.5157 27.7737 65.4377 26.3004 66.7244L25.5637 67.3482L24.9822 66.5684C21.1438 61.5387 18.6624 55.5732 17.8482 49.2959L17.6931 48.2821H23.7415C25.7964 48.2821 27.5023 46.6056 27.5023 44.5001C27.5023 42.4337 25.8351 40.7181 23.7415 40.7181H17.6931L17.8482 39.7044C18.6624 33.427 21.1438 27.4615 24.9822 22.4318L25.5637 21.691L26.3004 22.2759ZM41.6927 99.008L48.245 112.148L35.7606 115.306L29.2083 102.166L41.6927 99.047V99.008ZM49.9122 150.982H7.57377V125.287C7.57377 116.281 12.8467 108.132 21.0662 104.506L21.8417 104.155L30.3714 121.349C31.1468 122.909 32.9303 123.767 34.6363 123.338L49.9122 119.478V150.982ZM47.4308 93.7054V87.8959L48.4389 88.0128C51.8508 88.4417 55.4178 88.4417 58.8296 88.0128L59.8377 87.8959V93.7054L53.6343 106.221L47.4308 93.7054ZM99.7335 150.982H57.3951V119.478L72.6711 123.338C74.377 123.767 76.1605 122.948 76.9359 121.349L85.4656 104.155L86.2411 104.506C94.4218 108.132 99.7335 116.281 99.7335 125.287V150.982ZM50.9978 47.1514C52.3936 48.5941 54.9137 48.5941 56.2707 47.1514C60.4193 42.9795 64.5678 38.8076 68.7164 34.6357C72.1283 30.9316 67.088 25.8629 63.4435 29.2941C60.3805 32.3743 57.3176 35.4545 54.2934 38.4957L53.6343 39.1585L52.9752 38.4957C51.5794 37.092 50.1836 35.6884 48.8266 34.2848C45.1433 30.8537 40.103 35.9223 43.5149 39.5874C45.9963 42.0827 48.4777 44.5781 50.9978 47.1124V47.1514Z" fill="#FEFEFE"/>
</svg>
