<svg width="76" height="76" viewBox="0 0 76 76" fill="none" xmlns="http://www.w3.org/2000/svg">
<path d="M48.7278 0H14.6934C13.0143 0 11.6533 1.36098 11.6533 3.04005V72.96C11.6533 74.6389 13.0143 76 14.6934 76H61.3067C62.9856 76 64.3468 74.639 64.3468 72.96V15.6188L48.7278 0Z" fill="#E1E6E9"/>
<path d="M48.7277 15.6186H64.3464L48.7278 0L48.7277 15.6186Z" fill="#EBF0F3"/>
<path d="M65.9223 56.7573H10.0775C8.95815 56.7573 8.05078 55.8499 8.05078 54.7306V36.8883C8.05078 35.7689 8.95815 34.8616 10.0775 34.8616H65.9223C67.0417 34.8616 67.949 35.7689 67.949 36.8883V54.7308C67.949 55.8499 67.0417 56.7573 65.9223 56.7573Z" fill="#EF7F1A"/>
<path d="M30.4405 41.3949C31.1853 42.017 31.5576 42.976 31.5576 44.2717C31.5576 45.5674 31.1778 46.5159 30.4168 47.118C29.6571 47.7201 28.4916 48.0208 26.9211 48.0208H25.0231V51.1579H23.2174V40.4609H26.8901C28.5128 40.4609 29.6959 40.7722 30.4405 41.3949ZM29.1628 45.8097C29.5252 45.4267 29.7058 44.8657 29.7058 44.126C29.7058 43.3869 29.4767 42.8638 29.0171 42.5574C28.5574 42.2517 27.839 42.0985 26.8589 42.0985H25.0232V46.3831H27.1192C28.1193 46.3833 28.8004 46.1921 29.1628 45.8097Z" fill="#E1E6E9"/>
<path d="M41.7798 41.8614C42.811 42.7947 43.3253 44.093 43.3253 45.7562C43.3253 47.4187 42.8259 48.7351 41.8259 49.7039C40.8258 50.6735 39.2952 51.1579 37.2354 51.1579H33.6848V40.4609H37.3575C39.2753 40.4609 40.7499 40.9279 41.7798 41.8614ZM41.5045 45.8016C41.5045 43.3533 40.1022 42.129 37.2965 42.129H35.4906V49.4592H37.4957C38.791 49.4592 39.7834 49.151 40.4722 48.5333C41.1608 47.9163 41.5045 47.0058 41.5045 45.8016Z" fill="#E1E6E9"/>
<path d="M47.4573 42.1446V45.0824H52.2009V46.7506H47.4573V51.1579H45.6515V40.4609H52.7824L52.7675 42.1447H47.4573V42.1446Z" fill="#E1E6E9"/>
</svg>
