<svg width="32" height="24" viewBox="0 0 32 24" fill="none" xmlns="http://www.w3.org/2000/svg">
<path d="M0 15.7805V22.163C0 22.6192 0.310802 23.0179 0.75379 23.1267C10.7676 25.5871 20.7814 20.3874 30.7952 22.6212C31.4137 22.7592 32 22.2858 32 21.6521V15.7805C21.3333 12.7402 10.6667 18.8208 0 15.7805Z" fill="#FF473E"/>
<path d="M0 8.63429V15.7806C10.6667 18.8209 21.3333 12.7403 32 15.7806V8.63429C21.3333 5.59396 10.6667 11.6746 0 8.63429Z" fill="#0B67B2"/>
<path d="M0 2.48484V8.63426C10.6667 11.6746 21.3333 5.59393 32 8.63426V1.97403C32 1.51783 31.6892 1.11913 31.2462 1.01029C21.2324 -1.45008 11.2186 3.74956 1.20477 1.51575C0.586309 1.37784 0 1.85115 0 2.48484Z" fill="#E8E8E8"/>
</svg>
