<svg width="32" height="24" viewBox="0 0 32 24" fill="none" xmlns="http://www.w3.org/2000/svg">
<path d="M0 15.448V21.8304C0 22.2866 0.310802 22.6853 0.75379 22.7942C10.7676 25.2545 20.7814 20.0549 30.7952 22.2887C31.4137 22.4267 32 21.9533 32 21.3196V15.448C21.3333 12.4077 10.6667 18.4883 0 15.448Z" fill="#1EB53A"/>
<path d="M0 2.15232V8.30174C10.6667 11.3421 21.3333 5.26141 32 8.30174V1.64151C32 1.18531 31.6892 0.786612 31.2462 0.677769C21.2324 -1.7826 11.2186 3.41705 1.20477 1.18323C0.586309 1.04532 0 1.51863 0 2.15232Z" fill="#37A6F5"/>
<path d="M0 7.88736V15.1126C10.6667 18.1866 21.3333 12.0387 32 15.1126V7.88736C21.3333 4.81345 10.6667 10.9613 0 7.88736Z" fill="#FF0000"/>
<path d="M0 8.68741V15.9127C10.6667 18.9866 21.3333 12.8388 32 15.9127V8.68741C21.3333 5.61349 10.6667 11.7613 0 8.68741Z" fill="#FF0000"/>
<path d="M0 8.30174V15.4481C10.6667 18.4884 21.3333 12.4077 32 15.4481V8.30174C21.3333 5.26141 10.6667 11.3421 0 8.30174Z" fill="#EEEEEE"/>
<path d="M4.62118 6.8089C3.63824 6.8089 2.86007 6.03074 2.86007 5.0478C2.86007 4.06485 3.63824 3.28669 4.62118 3.28669C4.86691 3.28669 5.07169 3.32765 5.27647 3.40956C4.94883 3.16382 4.49831 3 4.0478 3C2.90103 3 2 3.90103 2 5.0478C2 6.19456 2.90103 7.09559 4.0478 7.09559C4.49831 7.09559 4.94883 6.93177 5.27647 6.68603C5.07169 6.76794 4.86691 6.8089 4.62118 6.8089Z" fill="white"/>
<path d="M6.38247 5.94885L6.54629 6.39937H6.9968L6.6282 6.6451L6.75107 7.09562L6.38247 6.80893L6.01386 7.09562L6.17769 6.6451L5.80908 6.39937H6.2596L6.38247 5.94885Z" fill="white"/>
<path d="M8.14315 5.94885L8.26601 6.39937H8.75749L8.38888 6.6451L8.51175 7.09562L8.14315 6.80893L7.77454 7.09562L7.89741 6.6451L7.52881 6.39937H7.97932L8.14315 5.94885Z" fill="white"/>
<path d="M9.90438 5.94885L10.0272 6.39937H10.4778L10.1092 6.6451L10.273 7.09562L9.90438 6.80893L9.49482 7.09562L9.65864 6.6451L9.29004 6.39937H9.74055L9.90438 5.94885Z" fill="white"/>
<path d="M11.6246 5.94885L11.7884 6.39937H12.2389L11.8703 6.6451L11.9932 7.09562L11.6246 6.80893L11.256 7.09562L11.3789 6.6451L11.0103 6.39937H11.5017L11.6246 5.94885Z" fill="white"/>
<path d="M13.3853 5.94885L13.5082 6.39937H13.9997L13.5901 6.6451L13.7539 7.09562L13.3853 6.80893L13.0167 7.09562L13.1396 6.6451L12.771 6.39937H13.2215L13.3853 5.94885Z" fill="white"/>
<path d="M8.14315 4.47437L8.26601 4.92488H8.75749L8.38888 5.17062L8.51175 5.62113L8.14315 5.33444L7.77454 5.62113L7.89741 5.17062L7.52881 4.92488H7.97932L8.14315 4.47437Z" fill="white"/>
<path d="M9.90438 4.47437L10.0272 4.92488H10.4778L10.1092 5.17062L10.273 5.62113L9.90438 5.33444L9.49482 5.62113L9.65864 5.17062L9.29004 4.92488H9.74055L9.90438 4.47437Z" fill="white"/>
<path d="M11.6246 4.47437L11.7884 4.92488H12.2389L11.8703 5.17062L11.9932 5.62113L11.6246 5.33444L11.256 5.62113L11.3789 5.17062L11.0103 4.92488H11.5017L11.6246 4.47437Z" fill="white"/>
<path d="M13.3853 4.47437L13.5082 4.92488H13.9997L13.5901 5.17062L13.7539 5.62113L13.3853 5.33444L13.0167 5.62113L13.1396 5.17062L12.771 4.92488H13.2215L13.3853 4.47437Z" fill="white"/>
<path d="M9.90438 3L10.0272 3.45052H10.4778L10.1092 3.69625L10.273 4.14677L9.90438 3.86007L9.49482 4.14677L9.65864 3.69625L9.29004 3.45052H9.74055L9.90438 3Z" fill="white"/>
<path d="M11.6246 3L11.7884 3.45052H12.2389L11.8703 3.69625L11.9932 4.14677L11.6246 3.86007L11.256 4.14677L11.3789 3.69625L11.0103 3.45052H11.5017L11.6246 3Z" fill="white"/>
<path d="M13.3853 3L13.5082 3.45052H13.9997L13.5901 3.69625L13.7539 4.14677L13.3853 3.86007L13.0167 4.14677L13.1396 3.69625L12.771 3.45052H13.2215L13.3853 3Z" fill="white"/>
</svg>
