<svg width="305" height="84" viewBox="0 0 305 84" fill="none" xmlns="http://www.w3.org/2000/svg">
<path fill-rule="evenodd" clip-rule="evenodd" d="M17.253 60.3391L47.6513 7.6951C50.5437 2.68195 55.8386 -0.0787857 61.2467 0.0226644C61.1215 0.0183474 60.9953 0 60.8701 0H30.6336C25.0873 0 19.9684 2.95069 17.1969 7.75014L2.07865 33.9426C-0.692883 38.7378 -0.692883 44.651 2.07865 49.4494L17.1969 75.6419C17.2627 75.7487 17.3458 75.8459 17.4095 75.9527C14.6218 71.3205 14.3574 65.3555 17.253 60.3391Z" fill="#5590CC"/>
<path d="M19.1514 57.0566L17.2563 60.3365C13.0169 67.6852 15.537 77.0769 22.8824 81.3205C30.23 85.5598 39.6206 83.0451 43.8599 75.6965L54.6234 57.0566H19.1514Z" fill="#2E4090"/>
<path d="M72.3574 26.3384L74.2515 23.0575C78.4908 15.7099 75.9762 6.31715 68.6275 2.07351C61.2832 -2.16581 51.8915 0.351015 47.6532 7.69967L36.8887 26.3384H72.3574Z" fill="#2E4090"/>
<path d="M72.3524 26.3384L43.8579 75.696C40.9622 80.7092 35.6663 83.4721 30.2593 83.3739C30.3834 83.3739 30.5042 83.3965 30.6294 83.3965H60.8713C66.4122 83.3965 71.5322 80.4415 74.3026 75.641L87.5592 52.6787L72.3524 26.3384Z" fill="#5ABEBC"/>
<path d="M123.669 44.0189C121.443 43.0552 119.52 41.7579 117.92 40.1174C116.312 38.4856 115.057 36.5721 114.135 34.3909C113.222 32.2086 112.763 29.8785 112.763 27.4081C112.763 24.9053 113.222 22.5525 114.135 20.3562C115.057 18.1545 116.312 16.2464 117.92 14.6243C119.52 13.0076 121.443 11.72 123.669 10.7757C125.899 9.82916 128.336 9.35645 130.963 9.35645C132.729 9.35645 134.396 9.57122 135.972 10.0051C137.547 10.4368 139.007 11.0574 140.355 11.8592C141.704 12.6611 142.912 13.6152 143.992 14.7214C145.062 15.8298 145.984 17.0569 146.754 18.406L142.184 21.1484C141.059 19.0309 139.544 17.3721 137.635 16.1676C135.727 14.9632 133.501 14.3664 130.963 14.3664C129.073 14.3664 127.33 14.7085 125.741 15.3938C124.152 16.0888 122.79 17.0256 121.646 18.215C120.511 19.4011 119.621 20.7869 118.977 22.3766C118.338 23.9653 118.013 25.6424 118.013 27.4081C118.013 29.2061 118.338 30.8919 118.977 32.4633C119.621 34.039 120.515 35.4194 121.674 36.6055C122.826 37.7916 124.199 38.7219 125.788 39.3986C127.382 40.071 129.12 40.4088 131.015 40.4088C132.682 40.4088 134.192 40.1681 135.541 39.6868C136.889 39.2044 138.065 38.5277 139.076 37.6664C140.091 36.7955 140.916 35.7713 141.556 34.5852C142.199 33.3937 142.666 32.0975 142.955 30.6847H130.338V25.7266H148.444V27.6034C148.444 29.9789 148.051 32.2496 147.263 34.4135C146.475 36.5818 145.341 38.4856 143.843 40.1174C142.351 41.7579 140.527 43.0552 138.359 44.0189C136.19 44.9816 133.743 45.4641 131.015 45.4641C128.351 45.4641 125.899 44.9816 123.669 44.0189Z" fill="#2E4090"/>
<path d="M164.784 28.5661H171.089C172.439 28.5661 173.601 28.3621 174.583 27.9649C175.561 27.5613 176.372 27.0335 177.016 26.3698C177.656 25.7179 178.132 24.9624 178.434 24.1098C178.739 23.2572 178.893 22.3668 178.893 21.4408C178.893 19.4161 178.244 17.7897 176.942 16.5528C175.645 15.3193 173.694 14.6998 171.089 14.6998H164.784V28.5661ZM171.526 9.83447C173.453 9.83447 175.186 10.1302 176.724 10.7238C178.268 11.3163 179.588 12.1376 180.7 13.1834C181.807 14.2217 182.654 15.4639 183.247 16.8863C183.841 18.3174 184.142 19.8834 184.142 21.5843C184.142 23.799 183.558 25.8517 182.386 27.7469C181.213 29.6367 179.536 31.0494 177.355 31.9808L184.813 44.9816H178.846L172.439 33.3299H164.784V44.9816H159.538V9.83447H171.526Z" fill="#2E4090"/>
<path d="M215.218 32.4634L209.631 17.057L204.048 32.4634H215.218ZM212.328 9.8335L225.231 44.9817H219.788L217.05 37.4711H202.217L199.521 44.9817H194.034L206.934 9.8335H212.328Z" fill="#2E4090"/>
<path d="M241.719 9.83447L259.535 36.4112V9.83447H264.738V44.9816H259.197L241.044 17.9753V44.9816H235.803V9.83447H241.719Z" fill="#2E4090"/>
<path d="M282.083 40.1184H286.225C288.246 40.1184 290.086 39.7979 291.734 39.1546C293.388 38.5146 294.811 37.6253 295.997 36.4856C297.188 35.3459 298.1 33.998 298.745 32.4406C299.379 30.8843 299.703 29.2071 299.703 27.4091C299.703 25.5798 299.406 23.8788 298.814 22.3042C298.217 20.7328 297.346 19.3837 296.191 18.2592C295.033 17.1367 293.606 16.2571 291.905 15.6117C290.204 14.9685 288.246 14.649 286.031 14.649H282.083V40.1184ZM286.563 9.83447C289.418 9.83447 291.984 10.2888 294.265 11.1835C296.543 12.0815 298.475 13.3194 300.065 14.8951C301.653 16.4654 302.873 18.3196 303.724 20.4544C304.573 22.5859 305 24.9074 305 27.4091C305 29.9108 304.546 32.242 303.627 34.3919C302.711 36.5407 301.446 38.3948 299.824 39.9522C298.202 41.5085 296.275 42.7324 294.047 43.6346C291.818 44.5337 289.385 44.9837 286.753 44.9837H276.834V9.83447H286.563Z" fill="#2E4090"/>
<path d="M116.566 60.333L121.694 67.4259L126.991 60.333H128.386V73.8529H126.935V62.6674L121.663 69.7797L116.584 62.8531V73.8529H115.135V60.333H116.566Z" fill="#2E4090"/>
<path d="M142.534 69.0563L139.953 62.2774L137.405 69.0563H142.534ZM140.733 60.3315L145.867 73.8557H144.369L143.049 70.4269H136.882L135.584 73.8557H134.064L139.174 60.3315H140.733Z" fill="#2E4090"/>
<path d="M152.979 67.6666H156.302C156.803 67.6666 157.262 67.5791 157.67 67.4075C158.077 67.2359 158.425 67.005 158.707 66.7222C158.99 66.4384 159.208 66.1146 159.357 65.7487C159.505 65.3882 159.578 65.0127 159.578 64.6328C159.578 64.2108 159.505 63.8168 159.357 63.4564C159.208 63.0894 158.99 62.7743 158.707 62.5099C158.425 62.2465 158.082 62.0372 157.68 61.8893C157.28 61.7404 156.826 61.667 156.321 61.667H152.979V67.6666ZM156.428 60.333C157.1 60.333 157.711 60.4431 158.276 60.6665C158.838 60.8888 159.315 61.1943 159.722 61.5828C160.13 61.9735 160.449 62.4311 160.681 62.9556C160.908 63.478 161.024 64.0392 161.024 64.6328C161.024 65.0731 160.955 65.507 160.816 65.929C160.681 66.3466 160.486 66.7319 160.236 67.0838C159.986 67.4356 159.667 67.7507 159.296 68.0184C158.925 68.2936 158.513 68.5008 158.058 68.6487L161.134 73.8529H159.449L156.612 68.9638H152.979V73.8529H151.539V60.333H156.428Z" fill="#2E4090"/>
<path d="M168.441 69.7049V73.8557H167V60.3315H168.441V67.7773L174.835 60.3315H176.614L171.999 65.7429L177.207 73.8557H175.535L170.984 66.7207L168.441 69.7049Z" fill="#2E4090"/>
<path d="M190.889 60.333V61.7037H184.129V66.3887H190.889V67.7594H184.129V72.4671H190.889V73.8529H182.683V60.333H190.889Z" fill="#2E4090"/>
<path d="M196.553 61.667V60.333H206.131V61.667H202.072V73.8529H200.631V61.667H196.553Z" fill="#2E4090"/>
<path d="M213.638 73.8529H212.194V60.333H213.638V73.8529Z" fill="#2E4090"/>
<path d="M221.8 60.333L229.764 71.5594V60.333H231.205V73.8529H229.667L221.633 62.5379V73.8529H220.183V60.333H221.8Z" fill="#2E4090"/>
<path d="M241.427 73.4919C240.575 73.126 239.834 72.6306 239.207 72.0003C238.578 71.3701 238.078 70.6383 237.725 69.7987C237.364 68.9558 237.184 68.0578 237.184 67.093C237.184 66.1292 237.364 65.2259 237.717 64.3883C238.063 63.5487 238.56 62.8116 239.189 62.1867C239.816 61.5564 240.562 61.0556 241.427 60.6951C242.294 60.3282 243.239 60.1479 244.258 60.1479C244.916 60.1479 245.541 60.2311 246.135 60.3983C246.727 60.5602 247.279 60.8009 247.788 61.1128C248.303 61.4172 248.766 61.7884 249.192 62.219C249.609 62.654 249.972 63.1364 250.263 63.6642L249.002 64.3883C248.548 63.526 247.909 62.8299 247.098 62.3021C246.278 61.7798 245.338 61.5197 244.258 61.5197C243.41 61.5197 242.641 61.6675 241.955 61.9643C241.275 62.2601 240.686 62.6594 240.195 63.1634C239.708 63.6739 239.333 64.2621 239.064 64.9345C238.806 65.6068 238.666 66.3289 238.666 67.093C238.666 67.8582 238.806 68.5759 239.073 69.2472C239.346 69.9239 239.732 70.5121 240.223 71.0182C240.719 71.5276 241.302 71.9259 241.974 72.227C242.651 72.5195 243.383 72.6673 244.189 72.6673C244.981 72.6673 245.685 72.5518 246.311 72.3155C246.927 72.0834 247.465 71.7543 247.909 71.3334C248.354 70.9157 248.711 70.4203 248.974 69.8537C249.244 69.286 249.42 68.673 249.503 68.019H244.077V66.6483H251V67.0563C251 67.9823 250.856 68.8683 250.56 69.7166C250.263 70.5595 249.823 71.3053 249.244 71.9485C248.665 72.5885 247.95 73.098 247.107 73.4735C246.26 73.8534 245.287 74.0391 244.189 74.0391C243.201 74.0391 242.279 73.8577 241.427 73.4919Z" fill="#2E4090"/>
<path d="M265.948 73.8529H264.502V60.333H265.948V73.8529Z" fill="#2E4090"/>
<path d="M274.104 60.333L282.068 71.5594V60.333H283.508V73.8529H281.975L273.932 62.5379V73.8529H272.491V60.333H274.104Z" fill="#2E4090"/>
<path d="M293.72 73.4919C292.883 73.126 292.146 72.6306 291.516 72.0003C290.891 71.3701 290.39 70.6383 290.023 69.7987C289.662 68.9558 289.481 68.0578 289.481 67.093C289.481 66.1292 289.662 65.2259 290.023 64.3883C290.39 63.5487 290.891 62.8116 291.516 62.1867C292.146 61.5564 292.883 61.0556 293.72 60.6951C294.56 60.3282 295.464 60.1479 296.426 60.1479C297.071 60.1479 297.681 60.2311 298.275 60.3983C298.869 60.5602 299.424 60.8009 299.943 61.1128C300.467 61.4172 300.939 61.7884 301.362 62.2104C301.787 62.6356 302.148 63.1083 302.451 63.6275L301.204 64.3495C300.74 63.512 300.086 62.8299 299.248 62.3021C298.418 61.7798 297.478 61.5197 296.426 61.5197C295.648 61.5197 294.93 61.6675 294.258 61.9643C293.591 62.2601 293.017 62.6594 292.526 63.1634C292.043 63.6739 291.655 64.2621 291.382 64.9345C291.103 65.6068 290.96 66.3289 290.96 67.093C290.96 67.8582 291.103 68.5759 291.382 69.2472C291.655 69.9239 292.043 70.5121 292.526 71.0182C293.017 71.5276 293.591 71.9259 294.258 72.227C294.93 72.5195 295.648 72.6673 296.426 72.6673C297.613 72.6673 298.624 72.3889 299.443 71.8244C300.272 71.2632 300.912 70.5315 301.351 69.6325L302.631 70.2994C302.33 70.8553 301.978 71.3603 301.566 71.8147C301.153 72.2734 300.681 72.6673 300.152 73.0008C299.615 73.3343 299.036 73.589 298.419 73.7693C297.794 73.9506 297.127 74.0391 296.426 74.0391C295.464 74.0391 294.56 73.8577 293.72 73.4919Z" fill="#2E4090"/>
</svg>
