<svg width="334" height="91" viewBox="0 0 334 91" fill="none" xmlns="http://www.w3.org/2000/svg">
<path d="M21.8396 62.2546L19.7763 65.839C15.1543 73.8567 17.9016 84.1027 25.9192 88.7365C33.9369 93.3584 44.183 90.623 48.8049 82.6053L60.5484 62.2664H21.8396V62.2546Z" fill="#FEFEFE"/>
<path d="M79.8976 28.7346L81.961 25.1502C86.5829 17.1326 83.8475 6.88649 75.8298 2.25275C67.8122 -2.36919 57.5661 0.366246 52.9442 8.3839L41.2007 28.7228H79.8976V28.7346Z" fill="#FEFEFE"/>
<path fill-rule="evenodd" clip-rule="evenodd" d="M58.2664 0H34.3785C28.3299 0 22.7411 3.21885 19.7227 8.45391L3.22755 37.0345C0.209142 42.2695 0.209142 48.719 3.22755 53.9541L15.1715 74.6467C15.089 71.251 15.9025 67.7963 17.7301 64.6482L20.4891 59.8848L37.1021 31.1274L50.909 7.22768C52.7248 4.07957 55.3069 1.6389 58.29 0.0117907L58.2664 0Z" fill="#FEFEFE"/>
<path d="M43.486 91H67.3739C73.4225 91 79.0113 87.7812 82.0297 82.5343L96.4968 57.4792L81.2751 31.1152L50.867 83.7841C49.0512 86.9323 46.469 89.3729 43.486 91Z" fill="#FEFEFE"/>
<path d="M135.893 48.0345C133.464 46.9851 131.365 45.5702 129.62 43.778C127.864 41.9977 126.496 39.9107 125.494 37.529C124.491 35.1473 123.996 32.6005 123.996 29.9122C123.996 27.1768 124.491 24.6182 125.494 22.2129C126.496 19.8076 127.875 17.7325 129.62 15.9639C131.365 14.1953 133.464 12.7922 135.893 11.7664C138.322 10.7288 140.987 10.2218 143.852 10.2218C145.774 10.2218 147.601 10.4576 149.323 10.9292C151.044 11.4009 152.636 12.0729 154.11 12.9572C155.583 13.8297 156.904 14.8673 158.071 16.0818C159.239 17.2962 160.241 18.6285 161.09 20.1024L156.102 23.0972C154.876 20.7862 153.225 18.9823 151.138 17.6617C149.051 16.3529 146.634 15.6927 143.863 15.6927C141.8 15.6927 139.902 16.07 138.169 16.8128C136.435 17.5674 134.95 18.5932 133.7 19.8901C132.462 21.1871 131.495 22.6963 130.788 24.4296C130.092 26.1628 129.738 27.9903 129.738 29.924C129.738 31.8813 130.092 33.7324 130.788 35.442C131.495 37.1635 132.462 38.6727 133.735 39.9579C134.997 41.2548 136.494 42.2688 138.228 43.0116C139.961 43.7427 141.859 44.1082 143.934 44.1082C145.75 44.1082 147.401 43.8488 148.875 43.3182C150.348 42.7876 151.634 42.0566 152.73 41.1133C153.838 40.1583 154.734 39.05 155.43 37.753C156.138 36.456 156.645 35.0412 156.963 33.4966H143.191V28.0847H162.953V30.1362C162.953 32.7302 162.528 35.2062 161.667 37.5644C160.807 39.9343 159.569 42.0094 157.942 43.7898C156.314 45.582 154.322 46.9969 151.964 48.0463C149.594 49.0956 146.929 49.6262 143.946 49.6262C141.034 49.6262 138.369 49.0956 135.928 48.0463L135.893 48.0345Z" fill="#FEFEFE"/>
<path d="M180.747 31.1626H187.632C189.106 31.1626 190.368 30.9386 191.441 30.5023C192.502 30.0661 193.398 29.4883 194.094 28.7573C194.789 28.0499 195.308 27.2245 195.638 26.293C195.968 25.3616 196.133 24.3948 196.133 23.3808C196.133 21.1759 195.426 19.3955 194.011 18.0514C192.596 16.7072 190.462 16.0234 187.621 16.0234H180.735V31.1508L180.747 31.1626ZM188.104 10.7294C190.203 10.7294 192.101 11.0477 193.775 11.6962C195.461 12.3447 196.9 13.2408 198.114 14.3845C199.329 15.5164 200.248 16.8723 200.897 18.4287C201.545 19.985 201.875 21.6947 201.875 23.5576C201.875 25.9747 201.239 28.2149 199.965 30.2783C198.68 32.3417 196.853 33.8862 194.471 34.9002L202.606 49.0844H196.098L189.106 36.3741H180.758V49.0844H175.04V10.7294H188.116H188.104Z" fill="#FEFEFE"/>
<path d="M235.785 35.419L229.689 18.6055L223.593 35.419H235.785ZM232.625 10.7294L246.703 49.0844H240.76L237.777 40.8899H221.589L218.653 49.0844H212.663L226.741 10.7294H232.625Z" fill="#FEFEFE"/>
<path d="M264.698 10.7294L284.141 39.7226V10.7294H289.812V49.0844H283.776L263.967 19.6077V49.0844H258.249V10.7294H264.698Z" fill="#FEFEFE"/>
<path d="M308.75 43.7786H313.266C315.471 43.7786 317.476 43.4249 319.28 42.7292C321.084 42.0336 322.64 41.0668 323.937 39.8169C325.234 38.5789 326.236 37.1051 326.932 35.4072C327.627 33.7094 327.981 31.8818 327.981 29.9128C327.981 27.9202 327.663 26.0572 327.014 24.3476C326.366 22.6379 325.411 21.1641 324.149 19.9379C322.887 18.7117 321.331 17.7566 319.468 17.0492C317.617 16.3417 315.471 15.9998 313.054 15.9998H308.75V43.7904V43.7786ZM313.644 10.7294C316.756 10.7294 319.563 11.2246 322.05 12.2032C324.538 13.1818 326.649 14.5378 328.382 16.2592C330.115 17.9688 331.448 19.9968 332.379 22.3196C333.299 24.6424 333.77 27.1774 333.77 29.9128C333.77 32.6482 333.275 35.1832 332.273 37.5296C331.271 39.8759 329.891 41.8921 328.123 43.59C326.354 45.2878 324.255 46.6202 321.815 47.6106C319.386 48.5892 316.733 49.0844 313.856 49.0844H303.032V10.7294H313.655H313.644Z" fill="#FEFEFE"/>
<path d="M128.154 65.8271L133.742 73.5736L139.52 65.8271H141.041V80.5773H139.461V68.3739L133.707 76.144L128.165 68.5862V80.5773H126.585V65.8271H128.154Z" fill="#FEFEFE"/>
<path d="M156.47 75.3543L153.652 67.9616L150.87 75.3543H156.47ZM154.501 65.8392L160.102 80.6011H158.463L157.024 76.8635H150.292L148.877 80.6011H147.214L152.791 65.8392H154.489H154.501Z" fill="#FEFEFE"/>
<path d="M167.881 73.833H171.5C172.043 73.833 172.55 73.7387 172.998 73.55C173.446 73.3614 173.823 73.1138 174.13 72.8072C174.436 72.5007 174.672 72.1469 174.837 71.7461C175.002 71.357 175.085 70.9443 175.085 70.5316C175.085 70.0718 175.002 69.6473 174.837 69.2464C174.672 68.8456 174.436 68.5036 174.13 68.2089C173.823 67.9259 173.446 67.6901 173.01 67.5368C172.573 67.3717 172.078 67.2892 171.524 67.2892H167.881V73.833ZM171.642 65.8271C172.373 65.8271 173.045 65.9451 173.658 66.1927C174.271 66.4285 174.79 66.7704 175.238 67.1949C175.686 67.6193 176.028 68.1145 176.287 68.6923C176.535 69.2582 176.665 69.8713 176.665 70.5198C176.665 71.0033 176.582 71.4749 176.441 71.9347C176.299 72.3945 176.075 72.8072 175.804 73.1963C175.533 73.5854 175.179 73.9273 174.778 74.2221C174.377 74.5169 173.929 74.7527 173.434 74.906L176.794 80.5891H174.955L171.866 75.2597H167.904V80.5891H166.336V65.8389H171.665L171.642 65.8271Z" fill="#FEFEFE"/>
<path d="M184.741 76.0614V80.5891H183.172V65.8271H184.741V73.9509L191.721 65.8271H193.654L188.62 71.7343L194.303 80.5891H192.475L187.511 72.7954L184.741 76.0614Z" fill="#FEFEFE"/>
<path d="M209.237 65.8271V67.3246H201.856V72.4417H209.237V73.9391H201.856V79.0681H209.237V80.5773H200.276V65.8271H209.237Z" fill="#FEFEFE"/>
<path d="M215.423 67.2892V65.8271H225.869V67.2892H221.448V80.5773H219.868V67.2892H215.423Z" fill="#FEFEFE"/>
<path d="M234.07 80.5773H232.49V65.8271H234.07V80.5773Z" fill="#FEFEFE"/>
<path d="M242.962 65.8271L251.652 78.0777V65.8271H253.22V80.5773H251.546L242.785 68.2324V80.5773H241.194V65.8271H242.962Z" fill="#FEFEFE"/>
<path d="M264.378 80.1881C263.447 79.7872 262.645 79.2448 261.961 78.5609C261.277 77.8771 260.723 77.0753 260.346 76.1556C259.945 75.236 259.756 74.2574 259.756 73.208C259.756 72.1586 259.957 71.1682 260.334 70.2603C260.711 69.3406 261.254 68.5389 261.937 67.855C262.621 67.1712 263.435 66.617 264.378 66.2279C265.321 65.827 266.359 65.6266 267.467 65.6266C268.186 65.6266 268.87 65.7209 269.519 65.8978C270.167 66.0746 270.769 66.334 271.323 66.676C271.889 67.0061 272.384 67.4188 272.856 67.8904C273.315 68.362 273.704 68.8926 274.023 69.4703L272.643 70.2603C272.148 69.3171 271.452 68.5625 270.568 67.9847C269.672 67.4188 268.646 67.124 267.467 67.124C266.536 67.124 265.699 67.2891 264.956 67.6074C264.213 67.9258 263.576 68.362 263.034 68.9162C262.503 69.4703 262.091 70.1188 261.796 70.8499C261.513 71.5809 261.36 72.3708 261.36 73.208C261.36 74.0451 261.513 74.8233 261.808 75.5543C262.102 76.2854 262.527 76.9338 263.057 77.488C263.6 78.0422 264.237 78.4784 264.968 78.8085C265.699 79.1269 266.5 79.292 267.385 79.292C268.245 79.292 269.012 79.1623 269.696 78.9029C270.368 78.6553 270.957 78.2898 271.441 77.8299C271.924 77.3701 272.313 76.8395 272.608 76.2146C272.903 75.5897 273.091 74.9294 273.186 74.2102H267.267V72.7128H274.825V73.1608C274.825 74.1748 274.66 75.1417 274.341 76.0613C274.011 76.981 273.539 77.7946 272.903 78.502C272.266 79.1976 271.488 79.7518 270.568 80.1645C269.648 80.5772 268.587 80.7776 267.385 80.7776C266.312 80.7776 265.298 80.5772 264.366 80.1881H264.378Z" fill="#FEFEFE"/>
<path d="M291.143 80.5773H289.563V65.8271H291.143V80.5773Z" fill="#FEFEFE"/>
<path d="M300.036 65.8271L308.726 78.0777V65.8271H310.294V80.5773H308.619L299.847 68.2324V80.5773H298.279V65.8271H300.036Z" fill="#FEFEFE"/>
<path d="M321.451 80.1881C320.532 79.7872 319.73 79.2448 319.046 78.5609C318.362 77.8771 317.82 77.0753 317.419 76.1556C317.03 75.236 316.829 74.2574 316.829 73.208C316.829 72.1586 317.03 71.1682 317.419 70.2603C317.82 69.3406 318.362 68.5389 319.046 67.855C319.73 67.1712 320.532 66.617 321.451 66.2279C322.371 65.827 323.349 65.6266 324.399 65.6266C325.106 65.6266 325.767 65.7209 326.415 65.8978C327.064 66.0746 327.665 66.334 328.231 66.676C328.797 67.0061 329.316 67.4188 329.775 67.8786C330.235 68.3384 330.636 68.8572 330.966 69.4232L329.61 70.2132C329.103 69.3053 328.396 68.5507 327.476 67.9847C326.568 67.4188 325.543 67.124 324.399 67.124C323.55 67.124 322.76 67.2891 322.029 67.6074C321.298 67.9258 320.673 68.362 320.142 68.9162C319.612 69.4703 319.187 70.1188 318.893 70.8499C318.586 71.5809 318.433 72.3708 318.433 73.208C318.433 74.0451 318.586 74.8233 318.893 75.5543C319.187 76.2854 319.612 76.9338 320.142 77.488C320.685 78.0422 321.31 78.4784 322.029 78.8085C322.76 79.1269 323.55 79.292 324.399 79.292C325.696 79.292 326.792 78.9854 327.688 78.3723C328.596 77.7592 329.292 76.9574 329.775 75.9788L331.167 76.7098C330.837 77.3111 330.459 77.8653 329.999 78.3605C329.551 78.8557 329.033 79.292 328.455 79.6575C327.865 80.023 327.24 80.2942 326.568 80.4946C325.884 80.6951 325.153 80.7894 324.399 80.7894C323.349 80.7894 322.359 80.5889 321.451 80.1998V80.1881Z" fill="#FEFEFE"/>
</svg>
