<svg width="119" height="61" viewBox="0 0 119 61" fill="none" xmlns="http://www.w3.org/2000/svg">
<path d="M17.7768 59.9529C17.8293 60.0823 17.8377 60.2397 17.7974 60.4225C17.7581 60.6016 17.5987 60.6944 17.3044 60.6944H14.5326C14.1642 60.6944 13.943 60.5631 13.8671 60.3025L12.7685 55.8013C12.7169 55.672 12.6766 55.5811 12.6504 55.5304C12.6269 55.4779 12.5491 55.4526 12.4198 55.4526H6.08042C5.92201 55.4526 5.82921 55.4864 5.80484 55.5511C5.77859 55.6167 5.73922 55.6879 5.68673 55.7657L4.62939 60.3035C4.55346 60.5641 4.34537 60.6953 4.00698 60.6953H1.42174C0.902443 60.6953 0.703722 60.4609 0.836827 59.9913L6.58753 37.0588C6.66346 36.7232 6.89686 36.5517 7.29149 36.5517H11.204C11.3849 36.5517 11.5293 36.5789 11.6343 36.6304C11.7355 36.6811 11.8189 36.8104 11.8667 37.0204L17.7759 59.952L17.7768 59.9529ZM10.3435 45.6525L9.32744 40.9723C9.30119 40.8701 9.26182 40.8157 9.20933 40.8157C9.15965 40.8157 9.11559 40.8551 9.09216 40.9339L8.11356 45.5363L6.62409 51.8944C6.59972 52.0228 6.59972 52.1109 6.62409 52.1653C6.65221 52.2206 6.7272 52.2403 6.86031 52.2403H11.594C11.8293 52.2403 11.908 52.1269 11.8293 51.8953L10.3435 45.6535V45.6525Z" fill="#005392"/>
<path d="M34.1777 39.9177H29.2846C28.9706 39.9177 28.8169 40.048 28.8169 40.3077L28.7757 60.1469C28.7757 60.5134 28.591 60.6943 28.2264 60.6943H25.524C25.1134 60.6943 24.9025 60.5256 24.9025 60.1863L24.9381 40.3451C24.9381 40.2149 24.9156 40.1117 24.8622 40.0349C24.8097 39.9561 24.6794 39.9168 24.4694 39.9168H19.7789C19.3852 39.9168 19.1865 39.7227 19.1865 39.3291V37.1009C19.1865 36.7354 19.3852 36.5498 19.7789 36.5498H34.1767C34.5414 36.5498 34.7241 36.7232 34.7241 37.0578V39.3291C34.7241 39.7227 34.5414 39.9168 34.1767 39.9168L34.1777 39.9177Z" fill="#005392"/>
<path d="M53.841 54.0033C53.841 55.0991 53.6404 56.0702 53.2533 56.9185C52.8615 57.7668 52.3262 58.4877 51.6504 59.0894C50.9699 59.6931 50.1553 60.1477 49.2001 60.4599C48.2506 60.7739 47.2279 60.9304 46.1293 60.9304C45.0326 60.9304 44.0165 60.7776 43.0764 60.4805C42.139 60.1815 41.3151 59.7353 40.613 59.1504C39.909 58.5627 39.3569 57.8399 38.9688 56.9766C38.577 56.1161 38.383 55.1272 38.383 54.0033V43.1253C38.383 42.0576 38.577 41.0903 38.9688 40.2307C39.3569 39.3683 39.9025 38.6381 40.5895 38.0373C41.2804 37.4364 42.0978 36.9837 43.037 36.6697C43.9772 36.3575 44.9933 36.2 46.0909 36.2C47.1586 36.2 48.1615 36.3575 49.1055 36.6697C50.0438 36.9837 50.863 37.4345 51.5688 38.0176C52.2709 38.6072 52.8249 39.328 53.2317 40.1885C53.6376 41.0528 53.8401 42.0314 53.8401 43.1253V54.0033H53.841ZM49.965 43.1656C49.965 42.1738 49.6257 41.3302 48.9499 40.6384C48.2684 39.9476 47.3282 39.6036 46.1293 39.6036C44.9014 39.6036 43.9434 39.9467 43.2545 40.6384C42.5627 41.3302 42.2159 42.1729 42.2159 43.1656V53.964C42.2159 54.9801 42.5486 55.8284 43.2141 56.5098C43.8815 57.1847 44.8395 57.525 46.0928 57.525C47.2898 57.525 48.2403 57.1922 48.9274 56.5276C49.6191 55.8621 49.966 55.0054 49.966 53.963V43.1646L49.965 43.1656Z" fill="#005392"/>
<path d="M79.2703 60.6941H76.6916C76.3298 60.6941 76.1423 60.5254 76.1423 60.1861V46.3722C76.1423 46.3225 76.1226 46.2878 76.0851 46.2756C76.0458 46.2588 76.0139 46.2831 75.9905 46.3328L74.3501 50.7534L71.0328 59.3246C70.9803 59.4549 70.8912 59.5918 70.7591 59.7333C70.6297 59.8777 70.4469 59.9517 70.2154 59.9517H68.5338C68.3285 59.9517 68.1523 59.9264 68.0107 59.872C67.8626 59.8224 67.7398 59.6649 67.6367 59.4024L64.4394 51.0299L62.8421 46.4509C62.8159 46.4247 62.7812 46.4059 62.7428 46.3919C62.7053 46.3778 62.6828 46.3975 62.6828 46.4509V60.1448C62.6828 60.5113 62.4981 60.6922 62.1288 60.6922H59.5585C59.1639 60.6922 58.9708 60.5113 58.9708 60.1448V37.3332C58.9708 36.8092 59.2305 36.5486 59.7545 36.5486H61.7304C62.0763 36.5486 62.3153 36.5843 62.4447 36.6489C62.5759 36.7127 62.7081 36.8908 62.8421 37.1767C62.8899 37.2807 63.0333 37.6454 63.2686 38.2734C63.503 38.9005 63.7898 39.6569 64.1254 40.5446C64.4647 41.4285 64.8312 42.3893 65.2193 43.4176C65.6073 44.4478 65.9701 45.4086 66.2935 46.2934C66.6187 47.1802 66.9009 47.9385 67.1296 48.5656C67.3658 49.1908 67.5074 49.5545 67.5608 49.6604L69.2762 54.3538C69.3783 54.5628 69.4983 54.575 69.6267 54.396C69.7055 54.1316 69.8198 53.7886 69.9782 53.3574C70.1348 52.93 70.2979 52.4772 70.4657 52.0076C70.6363 51.538 70.7994 51.0834 70.9522 50.64C71.1106 50.1976 71.239 49.8414 71.3459 49.5826L76.028 37.1776C76.2389 36.7605 76.6054 36.5496 77.135 36.5496H79.0688C79.5984 36.5496 79.8627 36.7989 79.8627 37.2967V60.1101C79.8627 60.4991 79.6621 60.6941 79.2712 60.6941H79.2703Z" fill="#005392"/>
<path d="M98.6067 57.2899C98.9704 57.2899 99.1504 57.4745 99.1504 57.8401V60.1113C99.1504 60.4994 98.9704 60.6953 98.6067 60.6953H85.6102C85.2212 60.6953 85.03 60.5153 85.03 60.1479V37.1029C85.03 36.7354 85.2212 36.5517 85.6102 36.5517H98.4089C98.5674 36.5517 98.7023 36.592 98.8176 36.6707C98.9357 36.7476 98.9929 36.8938 98.9929 37.1029V39.331C98.9929 39.7228 98.8129 39.9187 98.4455 39.9187H89.3297C89.0157 39.9187 88.8591 40.049 88.8591 40.3105V45.9815C88.8591 46.3237 89.0157 46.4896 89.3297 46.4896H96.8426C97.2073 46.4896 97.3891 46.6864 97.3891 47.0811V49.3082C97.3891 49.6747 97.2213 49.8594 96.882 49.8594H89.3297C89.0157 49.8594 88.8591 50.0159 88.8591 50.3262V56.8212C88.8591 57.1333 89.0307 57.2899 89.3662 57.2899H98.6048H98.6067Z" fill="#005392"/>
<path d="M111.6 36.5517C114.024 36.5517 115.854 37.1666 117.093 38.3908C118.33 39.6159 118.952 41.3004 118.952 43.4385C118.952 44.119 118.857 44.7827 118.657 45.436C118.463 46.0856 118.195 46.7014 117.856 47.2751C117.519 47.8488 117.178 48.4206 116.723 48.878C114.84 50.7677 113.853 51.0189 110.928 51.0686H107.917C107.708 51.0686 107.603 51.1989 107.603 51.4642V60.1488C107.603 60.5163 107.395 60.6953 106.978 60.6953H104.318C103.922 60.6953 103.727 60.5275 103.727 60.1882V37.1029C103.727 36.7364 103.914 36.5526 104.276 36.5526H111.599L111.6 36.5517ZM112.264 47.7447C112.521 47.7447 112.758 47.6641 112.968 47.5076C113.644 47.0136 114.158 46.3987 114.514 45.6675C114.865 44.9401 115.038 44.299 115.038 43.7497C115.038 43.2576 114.974 42.772 114.843 42.3024C114.712 41.8347 114.497 41.4232 114.197 41.0716C113.9 40.7211 113.508 40.4371 113.027 40.2318C112.542 40.0209 111.933 39.9187 111.205 39.9187H108.037C107.721 39.9187 107.567 40.0612 107.567 40.3471V47.2751C107.567 47.5882 107.71 47.7457 107.999 47.7457H112.265L112.264 47.7447Z" fill="#005392"/>
<path d="M64.6652 15.4282C64.6652 13.0323 62.5336 11.0938 59.9127 11.0938C57.2872 11.0938 55.1613 13.0323 55.1613 15.4282V17.4716H64.6652V15.4282Z" fill="#005392"/>
<path d="M47.734 13.7072H50.1599L50.3821 13.0688C51.7759 9.02879 54.6986 6.32919 59.9778 6.32919C65.2617 6.32919 68.1741 9.02879 69.5773 13.0688L69.7957 13.7072H72.2254V17.4707H77.8523V9.43185H74.1132V6.59259H71.1109C69.193 2.08951 64.2184 0.0704346 59.9778 0.0704346C55.7391 0.0704346 50.7626 2.08951 48.8457 6.59259H45.849V9.43185H41.898V17.4707H47.734V13.7072Z" fill="#005392"/>
<path d="M77.8846 24.0145V23.124V22.4219V21.1593C77.2547 21.3936 76.7289 21.6758 76.2452 21.9448C75.2356 22.5053 74.362 22.9862 72.507 22.9862C70.6229 22.9862 69.7371 22.5016 68.7088 21.9382C67.6261 21.3477 66.3945 20.6756 64.0436 20.6756C61.7048 20.6756 60.475 21.3477 59.3942 21.9439C58.3744 22.5044 57.4876 22.9853 55.6111 22.9853C53.7251 22.9853 52.8421 22.5007 51.8176 21.9373C50.7302 21.3468 49.4995 20.6747 47.1607 20.6747C44.8183 20.6747 43.5922 21.3468 42.5058 21.9429C42.2949 22.0601 42.0793 22.1707 41.8656 22.2823V23.9967V24.0136V28.9197H77.8977V24.0136H77.8837L77.8846 24.0145Z" fill="#005392"/>
</svg>
